<svg xmlns="http://www.w3.org/2000/svg" xmlns:xlink="http://www.w3.org/1999/xlink" width="816" zoomAndPan="magnify" viewBox="0 0 612 149.999998" height="200" preserveAspectRatio="xMidYMid meet" version="1.0"><defs><g/></defs><path stroke-linecap="butt" transform="matrix(0.783719, 0.0385316, -0.0385316, 0.783719, 538.876678, 25.222907)" fill="none" stroke-linejoin="miter" d="M 51.317571 99.99759 L 11.762643 99.998455 L 11.761701 33.374094 L 51.316629 33.373229 L 51.319262 47.822427 L 29.762313 47.820632 L 29.764273 58.302403 L 49.721226 58.303115 L 49.723614 72.74734 L 29.761689 72.746873 L 29.762149 85.327086 L 51.318854 85.323909 Z M 51.317571 99.99759 " stroke="#ff914d" stroke-width="13.999995" stroke-opacity="1" stroke-miterlimit="4"/><g fill="#ffffff" fill-opacity="1"><g transform="translate(538.599236, 103.770653)"><g><path d="M 36.640625 1.796875 L 5.65625 0.28125 L 8.21875 -51.9375 L 39.203125 -50.421875 L 38.65625 -39.09375 L 21.765625 -39.921875 L 21.359375 -31.703125 L 37 -30.9375 L 36.4375 -19.625 L 20.796875 -20.390625 L 20.3125 -10.53125 L 37.203125 -9.703125 Z M 36.640625 1.796875 "/></g></g></g><path stroke-linecap="butt" transform="matrix(0.78453, 0.0145958, -0.0145958, 0.78453, 483.040945, 22.813767)" fill="none" stroke-linejoin="miter" d="M 70.634254 99.998864 L 47.028391 99.99988 L 22.693636 53.061604 L 22.285306 53.059243 C 22.43641 54.490411 22.572882 56.205659 22.694816 58.209965 C 22.81675 60.214271 22.924492 62.258674 23.012974 64.338289 C 23.106525 66.422789 23.15139 68.299073 23.152548 69.967047 L 23.148679 100.001012 L 7.200604 99.998973 L 7.200865 33.373717 L 30.717137 33.374367 L 54.9604 79.677021 L 55.234248 79.676906 C 55.142317 78.214763 55.051104 76.523568 54.960424 74.593366 C 54.869743 72.663165 54.78367 70.712962 54.707088 68.737686 C 54.630506 66.762411 54.593025 65.015446 54.594646 63.496793 L 54.596848 33.373235 L 70.634516 33.373607 Z M 70.634254 99.998864 " stroke="#ff914d" stroke-width="13.999995" stroke-opacity="1" stroke-miterlimit="4"/><g fill="#ffffff" fill-opacity="1"><g transform="translate(481.581362, 101.2668)"><g><path d="M 55.40625 1.03125 L 36.90625 0.6875 L 18.5 -36.5 L 18.171875 -36.5 C 18.273438 -35.382812 18.359375 -34.039062 18.421875 -32.46875 C 18.484375 -30.894531 18.535156 -29.285156 18.578125 -27.640625 C 18.617188 -26.003906 18.628906 -24.53125 18.609375 -23.21875 L 18.171875 0.34375 L 5.65625 0.109375 L 6.625 -52.15625 L 25.0625 -51.8125 L 43.40625 -15.15625 L 43.625 -15.140625 C 43.570312 -16.296875 43.519531 -17.628906 43.46875 -19.140625 C 43.425781 -20.648438 43.390625 -22.179688 43.359375 -23.734375 C 43.335938 -25.285156 43.335938 -26.65625 43.359375 -27.84375 L 43.796875 -51.46875 L 56.375 -51.234375 Z M 55.40625 1.03125 "/></g></g></g><path stroke-linecap="butt" transform="matrix(0.784141, -0.0287048, 0.0287048, 0.784141, 459.262586, 58.068123)" fill="none" stroke-linejoin="miter" d="M 7.199179 -8.625766 L 25.292237 -8.625987 L 25.294154 58.002535 L 7.201279 57.997781 Z M 7.199179 -8.625766 " stroke="#ff914d" stroke-width="13.999995" stroke-opacity="1" stroke-miterlimit="4"/><g fill="#ffffff" fill-opacity="1"><g transform="translate(460.927465, 103.548295)"><g><path d="M 5.65625 -0.203125 L 3.75 -52.453125 L 17.921875 -52.96875 L 19.828125 -0.71875 Z M 5.65625 -0.203125 "/></g></g></g><path stroke-linecap="butt" transform="matrix(0.781029, 0.0754609, -0.0754609, 0.781029, 417.451949, 18.451182)" fill="none" stroke-linejoin="miter" d="M 18.780974 100.001713 L 18.780306 33.372936 L 36.780527 33.374297 L 36.776903 85.464377 L 62.433849 85.461174 L 62.438142 99.99987 Z M 18.780974 100.001713 " stroke="#ff914d" stroke-width="13.999995" stroke-opacity="1" stroke-miterlimit="4"/><g fill="#ffffff" fill-opacity="1"><g transform="translate(418.948713, 97.427785)"><g><path d="M 5.625 0.546875 L 10.65625 -51.484375 L 24.71875 -50.125 L 20.78125 -9.453125 L 40.8125 -7.515625 L 39.71875 3.84375 Z M 5.625 0.546875 "/></g></g></g><path stroke-linecap="butt" transform="matrix(0.783663, -0.0396716, 0.0396716, 0.783663, 365.549516, 21.215375)" fill="none" stroke-linejoin="miter" d="M 62.577905 79.765677 C 62.579387 83.379593 61.668121 86.807733 59.84436 90.045125 C 58.02085 93.277546 55.18641 95.900514 51.346514 97.904338 C 47.501647 99.90791 42.540933 100.912904 36.464876 100.909375 C 33.429207 100.910222 30.764287 100.775315 28.470367 100.499682 C 26.176196 100.229021 24.040493 99.781951 22.068231 99.158725 C 20.090997 98.535247 18.038554 97.723532 15.916125 96.718858 L 15.915656 80.678369 C 19.526945 82.50112 23.175047 83.892074 26.85027 84.845755 C 30.525242 85.804408 33.855702 86.282052 36.831457 86.283157 C 38.625859 86.284272 40.08727 86.069146 41.230354 85.643506 C 42.368466 85.217614 43.210342 84.637157 43.756484 83.89219 C 44.302627 83.147224 44.580351 82.288977 44.579712 81.316946 C 44.578442 80.160453 44.174327 79.182951 43.372842 78.374747 C 42.566134 77.571264 41.282882 76.728703 39.518114 75.846812 C 37.758317 74.965173 35.436069 73.87063 32.546145 72.567904 C 30.087454 71.411623 27.859481 70.227146 25.872423 69.010002 C 23.880142 67.797579 22.181073 66.4056 20.764769 64.843504 C 19.353689 63.276689 18.269931 61.447305 17.508775 59.35013 C 16.74762 57.252955 16.369545 54.776405 16.369581 51.920227 C 16.371994 47.638571 17.426058 44.048184 19.536995 41.144343 C 21.64768 38.245475 24.594463 36.061855 28.376842 34.603426 C 32.15922 33.144998 36.527592 32.419064 41.477491 32.415429 C 45.824032 32.416142 49.737208 32.903347 53.212046 33.876792 C 56.691856 34.850488 59.816085 35.955722 62.579257 37.202186 L 57.065343 51.104261 C 54.210726 49.793353 51.397208 48.753694 48.634984 47.980816 C 45.867789 47.207686 43.300478 46.818521 40.932802 46.818292 C 39.382524 46.819566 38.116778 47.009705 37.125619 47.388205 C 36.139431 47.766957 35.410712 48.278374 34.939964 48.912511 C 34.468965 49.551621 34.232588 50.282361 34.236058 51.100012 C 34.233424 52.136677 34.635336 53.059237 35.441038 53.882607 C 36.246991 54.701006 37.597584 55.591838 39.498292 56.54541 C 41.393777 57.503703 43.987906 58.741609 47.265511 60.263345 C 50.516557 61.718937 53.283005 63.294551 55.560387 64.97999 C 57.837768 66.66543 59.579953 68.682668 60.776496 71.041145 C 61.978262 73.394901 62.578815 76.301422 62.577905 79.765677 Z M 62.577905 79.765677 " stroke="#ff914d" stroke-width="13.999995" stroke-opacity="1" stroke-miterlimit="4"/><g fill="#ffffff" fill-opacity="1"><g transform="translate(378.773686, 99.113012)"><g><path d="M 38.984375 -17.875 C 39.117188 -15.039062 38.535156 -12.316406 37.234375 -9.703125 C 35.941406 -7.097656 33.828125 -4.929688 30.890625 -3.203125 C 27.960938 -1.484375 24.113281 -0.503906 19.34375 -0.265625 C 16.96875 -0.140625 14.875 -0.140625 13.0625 -0.265625 C 11.257812 -0.390625 9.570312 -0.65625 8 -1.0625 C 6.4375 -1.476562 4.800781 -2.035156 3.09375 -2.734375 L 2.453125 -15.296875 C 5.347656 -14.015625 8.253906 -13.070312 11.171875 -12.46875 C 14.097656 -11.863281 16.722656 -11.617188 19.046875 -11.734375 C 20.453125 -11.804688 21.59375 -12.03125 22.46875 -12.40625 C 23.351562 -12.789062 23.992188 -13.285156 24.390625 -13.890625 C 24.785156 -14.492188 24.96875 -15.175781 24.9375 -15.9375 C 24.882812 -16.84375 24.523438 -17.597656 23.859375 -18.203125 C 23.203125 -18.804688 22.164062 -19.414062 20.75 -20.03125 C 19.332031 -20.644531 17.46875 -21.410156 15.15625 -22.328125 C 13.1875 -23.128906 11.394531 -23.96875 9.78125 -24.84375 C 8.175781 -25.71875 6.789062 -26.738281 5.625 -27.90625 C 4.457031 -29.070312 3.535156 -30.460938 2.859375 -32.078125 C 2.179688 -33.691406 1.785156 -35.617188 1.671875 -37.859375 C 1.503906 -41.210938 2.1875 -44.066406 3.71875 -46.421875 C 5.257812 -48.785156 7.484375 -50.613281 10.390625 -51.90625 C 13.296875 -53.195312 16.6875 -53.941406 20.5625 -54.140625 C 23.96875 -54.316406 27.050781 -54.085938 29.8125 -53.453125 C 32.582031 -52.828125 35.078125 -52.085938 37.296875 -51.234375 L 33.53125 -40.125 C 31.226562 -41.03125 28.976562 -41.734375 26.78125 -42.234375 C 24.59375 -42.734375 22.566406 -42.9375 20.703125 -42.84375 C 19.492188 -42.78125 18.507812 -42.582031 17.75 -42.25 C 16.988281 -41.914062 16.4375 -41.484375 16.09375 -40.953125 C 15.757812 -40.429688 15.609375 -39.851562 15.640625 -39.21875 C 15.679688 -38.40625 16.03125 -37.691406 16.6875 -37.078125 C 17.34375 -36.460938 18.429688 -35.816406 19.953125 -35.140625 C 21.484375 -34.460938 23.570312 -33.597656 26.21875 -32.546875 C 28.8125 -31.535156 31.035156 -30.414062 32.890625 -29.1875 C 34.742188 -27.957031 36.1875 -26.441406 37.21875 -24.640625 C 38.25 -22.835938 38.835938 -20.582031 38.984375 -17.875 Z M 38.984375 -17.875 "/></g></g></g><path stroke-linecap="butt" transform="matrix(0.784666, 0, 0, 0.784666, 337.717574, 59.404722)" fill="none" stroke-linejoin="miter" d="M 46.757057 57.998355 L 7.200023 57.998355 L 7.200023 -8.625329 L 46.757057 -8.625329 L 46.757057 5.821501 L 25.201311 5.821501 L 25.201311 16.300681 L 45.159045 16.300681 L 45.159045 30.747511 L 25.201311 30.747511 L 25.201311 43.327504 L 46.757057 43.327504 Z M 46.757057 57.998355 " stroke="#ff914d" stroke-width="13.999995" stroke-opacity="1" stroke-miterlimit="4"/><g fill="#ffffff" fill-opacity="1"><g transform="translate(337.717574, 104.915353)"><g><path d="M 36.6875 0 L 5.65625 0 L 5.65625 -52.28125 L 36.6875 -52.28125 L 36.6875 -40.9375 L 19.78125 -40.9375 L 19.78125 -32.71875 L 35.4375 -32.71875 L 35.4375 -21.390625 L 19.78125 -21.390625 L 19.78125 -11.515625 L 36.6875 -11.515625 Z M 36.6875 0 "/></g></g></g><path stroke-linecap="butt" transform="matrix(0.782149, 0.0627988, -0.0627988, 0.782149, 293.327887, 21.118237)" fill="none" stroke-linejoin="miter" d="M 18.776882 99.999239 L 18.776536 33.375941 L 36.780638 33.373729 L 36.777788 85.464009 L 62.438045 85.461377 L 62.436677 99.999756 Z M 18.776882 99.999239 " stroke="#ff914d" stroke-width="13.999995" stroke-opacity="1" stroke-miterlimit="4"/><g fill="#ffffff" fill-opacity="1"><g transform="translate(296.103826, 100.060241)"><g><path d="M 5.640625 0.453125 L 9.828125 -51.65625 L 23.90625 -50.53125 L 20.625 -9.796875 L 40.6875 -8.1875 L 39.78125 3.1875 Z M 5.640625 0.453125 "/></g></g></g><path stroke-linecap="butt" transform="matrix(0.776039, 0.00363655, -0.00363655, 0.776039, 242.86196, 27.050752)" fill="none" stroke-linejoin="miter" d="M 67.265742 33.374557 L 67.267422 73.477055 C 67.26846 79.069354 66.203945 83.921676 64.078936 88.039033 C 61.948893 92.156413 58.762397 95.327397 54.50943 97.562101 C 50.256462 99.796804 44.921049 100.909059 38.513329 100.913918 C 29.337108 100.911616 22.334443 98.558515 17.505311 93.849582 C 12.671145 89.140673 10.259087 82.487521 10.259044 73.885138 L 10.255454 33.37493 L 28.351166 33.375703 L 28.348152 72.476541 C 28.350072 77.182927 29.231867 80.601627 30.993514 82.727608 C 32.755161 84.853589 35.352444 85.918604 38.785339 85.917618 C 41.246751 85.916151 43.252981 85.453728 44.798996 84.530372 C 46.35002 83.601959 47.480744 82.136923 48.196175 80.130207 C 48.911607 78.123491 49.266973 75.544635 49.267261 72.383547 L 49.265666 33.373335 Z M 67.265742 33.374557 " stroke="#ff914d" stroke-width="13.999995" stroke-opacity="1" stroke-miterlimit="4"/><g fill="#ffffff" fill-opacity="1"><g transform="translate(245.153812, 104.667059)"><g><path d="M 49.796875 -51.46875 L 49.640625 -20.34375 C 49.617188 -16.007812 48.773438 -12.25 47.109375 -9.0625 C 45.441406 -5.875 42.953125 -3.421875 39.640625 -1.703125 C 36.335938 0.00390625 32.203125 0.847656 27.234375 0.828125 C 20.109375 0.796875 14.675781 -1.050781 10.9375 -4.71875 C 7.207031 -8.382812 5.359375 -13.554688 5.390625 -20.234375 L 5.546875 -51.671875 L 19.59375 -51.609375 L 19.4375 -21.265625 C 19.425781 -17.609375 20.097656 -14.953125 21.453125 -13.296875 C 22.804688 -11.640625 24.816406 -10.804688 27.484375 -10.796875 C 29.398438 -10.785156 30.957031 -11.132812 32.15625 -11.84375 C 33.363281 -12.5625 34.25 -13.695312 34.8125 -15.25 C 35.375 -16.800781 35.660156 -18.800781 35.671875 -21.25 L 35.828125 -51.53125 Z M 49.796875 -51.46875 "/></g></g></g><path stroke-linecap="butt" transform="matrix(0.780738, -0.078413, 0.078413, 0.780738, 189.065356, 27.225621)" fill="none" stroke-linejoin="miter" d="M 68.254533 65.274575 C 68.252193 73.019413 66.809431 79.463827 63.927242 84.597908 C 61.0401 89.731492 56.976057 93.581111 51.734615 96.151719 C 46.493671 98.717373 40.335886 100.000165 33.256305 99.999597 L 11.702024 100.001224 L 11.699474 33.372325 L 34.759129 33.376794 C 41.928864 33.37641 48.004331 34.607002 52.986027 37.063618 C 57.972179 39.525683 61.758096 43.12803 64.359136 47.867197 C 66.955223 52.605867 68.253522 58.409977 68.254533 65.274575 Z M 49.568069 65.91446 C 49.568817 61.871887 49.029828 58.520594 47.950606 55.865535 C 46.871881 53.205522 45.25541 51.216977 43.096736 49.894447 C 40.943016 48.572415 38.222327 47.913912 34.940618 47.909529 L 29.701766 47.913715 L 29.701071 85.23309 L 33.713426 85.235807 C 39.18212 85.234691 43.189216 83.645837 45.744123 80.475193 C 48.294574 77.299098 49.567737 72.443703 49.568069 65.91446 Z M 49.568069 65.91446 " stroke="#ff914d" stroke-width="13.999995" stroke-opacity="1" stroke-miterlimit="4"/><g fill="#ffffff" fill-opacity="1"><g transform="translate(200.419977, 104.946589)"><g><path d="M 47.0625 -32.109375 C 47.664062 -26.054688 47.039062 -20.914062 45.1875 -16.6875 C 43.332031 -12.457031 40.457031 -9.132812 36.5625 -6.71875 C 32.675781 -4.300781 27.972656 -2.8125 22.453125 -2.25 L 5.625 -0.5625 L 0.40625 -52.578125 L 18.40625 -54.390625 C 24.007812 -54.953125 28.847656 -54.46875 32.921875 -52.9375 C 37.003906 -51.40625 40.242188 -48.890625 42.640625 -45.390625 C 45.046875 -41.898438 46.519531 -37.472656 47.0625 -32.109375 Z M 32.515625 -30.140625 C 32.203125 -33.296875 31.515625 -35.867188 30.453125 -37.859375 C 29.398438 -39.859375 27.984375 -41.285156 26.203125 -42.140625 C 24.421875 -43.003906 22.25 -43.3125 19.6875 -43.0625 L 15.609375 -42.65625 L 18.53125 -13.5 L 21.65625 -13.8125 C 25.925781 -14.238281 28.929688 -15.789062 30.671875 -18.46875 C 32.410156 -21.15625 33.023438 -25.046875 32.515625 -30.140625 Z M 32.515625 -30.140625 "/></g></g></g><path stroke-linecap="butt" transform="matrix(0.7841, -0.0298109, 0.0298109, 0.7841, 158.999264, 63.261142)" fill="none" stroke-linejoin="miter" d="M 46.757301 57.998354 L 7.201554 57.998986 L 7.198726 -8.623121 L 46.754473 -8.623754 L 46.758364 5.818717 L 25.201897 5.821158 L 25.201934 16.302928 L 45.159083 16.304446 L 45.162974 30.746916 L 25.200661 30.750183 L 25.200857 43.324328 L 46.757135 43.326861 Z M 46.757301 57.998354 " stroke="#ff914d" stroke-width="13.999995" stroke-opacity="1" stroke-miterlimit="4"/><g fill="#ffffff" fill-opacity="1"><g transform="translate(160.728295, 108.738917)"><g><path d="M 36.65625 -1.390625 L 5.65625 -0.21875 L 3.671875 -52.46875 L 34.671875 -53.640625 L 35.09375 -42.296875 L 18.203125 -41.65625 L 18.515625 -33.4375 L 34.15625 -34.03125 L 34.59375 -22.71875 L 18.953125 -22.125 L 19.328125 -12.25 L 36.21875 -12.890625 Z M 36.65625 -1.390625 "/></g></g></g><path stroke-linecap="butt" transform="matrix(0.78453, 0.0145958, -0.0145958, 0.78453, 105.41433, 21.58598)" fill="none" stroke-linejoin="miter" d="M 67.285367 99.998 L 49.191397 100.001031 L 49.193946 72.840028 L 28.276789 72.840813 L 28.274239 100.001816 L 10.185154 99.999777 L 10.185416 33.37452 L 28.274501 33.376559 L 28.275887 58.072838 L 49.193045 58.072053 L 49.191658 33.375774 L 67.285628 33.372744 Z M 67.285367 99.998 " stroke="#ff914d" stroke-width="13.999995" stroke-opacity="1" stroke-miterlimit="4"/><g fill="#ffffff" fill-opacity="1"><g transform="translate(106.29608, 100.082574)"><g><path d="M 50.4375 0.9375 L 36.265625 0.671875 L 36.65625 -20.640625 L 20.234375 -20.9375 L 19.84375 0.375 L 5.65625 0.109375 L 6.625 -52.15625 L 20.8125 -51.890625 L 20.453125 -32.515625 L 36.875 -32.21875 L 37.234375 -51.59375 L 51.40625 -51.328125 Z M 50.4375 0.9375 "/></g></g></g><path stroke-linecap="butt" transform="matrix(0.783663, -0.0396716, 0.0396716, 0.783663, 51.572306, 28.560213)" fill="none" stroke-linejoin="miter" d="M 45.321526 47.183629 C 43.193253 47.180566 41.296146 47.632835 39.625986 48.525269 C 37.950603 49.422423 36.524068 50.720974 35.341158 52.425642 C 34.153529 54.125087 33.251061 56.197859 32.628784 58.643707 C 32.006506 61.089555 31.696767 63.860271 31.694342 66.960573 C 31.696459 71.152735 32.225776 74.678725 33.287517 77.533823 C 34.354229 80.389173 35.969791 82.544554 38.143894 84.005443 C 40.313276 85.461108 43.042711 86.192449 46.322504 86.193991 C 49.29851 86.190123 52.165383 85.781962 54.913683 84.959061 C 57.661731 84.141132 60.433252 83.154914 63.228246 82.000408 L 63.230469 97.218526 C 60.283237 98.524833 57.269604 99.468886 54.184852 100.045463 C 51.1001 100.62204 47.825596 100.909873 44.36134 100.908963 C 37.13351 100.911927 31.214713 99.475808 26.614642 96.60608 C 22.009599 93.736101 18.622652 89.746433 16.448577 84.641798 C 14.279474 79.537415 13.193537 73.615559 13.191018 66.871258 C 13.192165 61.826894 13.899572 57.207082 15.312989 53.016794 C 16.726657 48.821535 18.800015 45.183056 21.533062 42.101355 C 24.26611 39.019655 27.646828 36.633694 31.669993 34.948194 C 35.69813 33.262945 40.306725 32.419572 45.500748 32.418327 C 48.720879 32.416848 52.116539 32.788132 55.687729 33.532178 C 59.258918 34.276224 62.74257 35.469437 66.148627 37.112322 L 60.631065 51.283381 C 58.202204 50.128611 55.739171 49.156541 53.25191 48.367675 C 50.759678 47.578557 48.113069 47.180393 45.321526 47.183629 Z M 45.321526 47.183629 " stroke="#ff914d" stroke-width="13.999995" stroke-opacity="1" stroke-miterlimit="4"/><g fill="#ffffff" fill-opacity="1"><g transform="translate(62.16386, 106.591121)"><g><path d="M 26.796875 -42.859375 C 25.128906 -42.765625 23.660156 -42.332031 22.390625 -41.5625 C 21.117188 -40.800781 20.050781 -39.726562 19.1875 -38.34375 C 18.320312 -36.96875 17.691406 -35.3125 17.296875 -33.375 C 16.910156 -31.4375 16.78125 -29.25 16.90625 -26.8125 C 17.070312 -23.519531 17.625 -20.773438 18.5625 -18.578125 C 19.507812 -16.390625 20.863281 -14.765625 22.625 -13.703125 C 24.394531 -12.648438 26.566406 -12.1875 29.140625 -12.3125 C 31.460938 -12.425781 33.6875 -12.859375 35.8125 -13.609375 C 37.9375 -14.367188 40.066406 -15.257812 42.203125 -16.28125 L 42.8125 -4.359375 C 40.5625 -3.210938 38.234375 -2.347656 35.828125 -1.765625 C 33.429688 -1.191406 30.878906 -0.835938 28.171875 -0.703125 C 22.503906 -0.421875 17.804688 -1.316406 14.078125 -3.390625 C 10.359375 -5.460938 7.550781 -8.453125 5.65625 -12.359375 C 3.757812 -16.273438 2.675781 -20.875 2.40625 -26.15625 C 2.207031 -30.101562 2.578125 -33.75 3.515625 -37.09375 C 4.453125 -40.4375 5.929688 -43.367188 7.953125 -45.890625 C 9.972656 -48.421875 12.523438 -50.425781 15.609375 -51.90625 C 18.691406 -53.382812 22.273438 -54.226562 26.359375 -54.4375 C 28.867188 -54.5625 31.539062 -54.40625 34.375 -53.96875 C 37.207031 -53.53125 39.984375 -52.726562 42.703125 -51.5625 L 38.953125 -40.234375 C 37.003906 -41.046875 35.035156 -41.710938 33.046875 -42.234375 C 31.066406 -42.753906 28.984375 -42.960938 26.796875 -42.859375 Z M 26.796875 -42.859375 "/></g></g></g><path stroke-linecap="butt" transform="matrix(0.784666, 0, 0, 0.784666, 24.383555, 55.673075)" fill="none" stroke-linejoin="miter" d="M 50.767068 37.76832 C 50.767068 41.382517 49.856052 44.807541 48.034019 48.043392 C 46.207007 51.279243 43.374393 53.897793 39.531198 55.904021 C 35.688002 57.910249 30.729683 58.910873 24.656239 58.910873 C 21.614539 58.910873 18.951185 58.776461 16.65622 58.502658 C 14.361255 58.228855 12.230571 57.780815 10.254213 57.158536 C 8.277855 56.536256 6.226823 55.719826 4.101118 54.719202 L 4.101118 38.679337 C 7.715314 40.50137 11.364359 41.890297 15.038294 42.846117 C 18.71223 43.806916 22.042667 44.284826 25.01965 44.284826 C 26.811814 44.284826 28.275414 44.070763 29.415429 43.642635 C 30.555445 43.219485 31.396766 42.637032 31.944372 41.890297 C 32.491977 41.14854 32.76578 40.287306 32.76578 39.316551 C 32.76578 38.161601 32.362543 37.180889 31.556069 36.374415 C 30.754574 35.57292 29.47019 34.72662 27.707896 33.845473 C 25.945602 32.964326 23.620767 31.874093 20.733392 30.564818 C 18.274145 29.409868 16.048875 28.225049 14.057583 27.01036 C 12.071268 25.795671 10.368712 24.406744 8.954894 22.84358 C 7.541076 21.275436 6.455822 19.448425 5.694152 17.352589 C 4.937461 15.251775 4.559115 12.777594 4.559115 9.920088 C 4.559115 5.638808 5.6145 2.044525 7.725271 -0.857785 C 9.836041 -3.755116 12.783155 -5.935582 16.566612 -7.394204 C 20.350068 -8.852826 24.715978 -9.584626 29.669319 -9.584626 C 34.010338 -9.584626 37.923229 -9.09676 41.403013 -8.126004 C 44.877819 -7.150271 48.004149 -6.045103 50.767068 -4.795567 L 45.251187 9.103658 C 42.39866 7.794383 39.585958 6.753932 36.823039 5.982306 C 34.055142 5.205702 31.491352 4.8174 29.121714 4.8174 C 27.568505 4.8174 26.304034 5.006573 25.313366 5.389897 C 24.327676 5.768242 23.595876 6.276022 23.127922 6.913236 C 22.65499 7.55045 22.421013 8.28225 22.421013 9.103658 C 22.421013 10.134152 22.82425 11.060103 23.630723 11.881512 C 24.432219 12.70292 25.786298 13.589045 27.683005 14.549844 C 29.584689 15.505665 32.17337 16.745245 35.454025 18.263606 C 38.704811 19.722228 41.46773 21.290371 43.747761 22.977992 C 46.027791 24.665613 47.765194 26.686775 48.964948 29.041479 C 50.164702 31.396183 50.767068 34.303471 50.767068 37.76832 Z M 50.767068 37.76832 " stroke="#ff914d" stroke-width="13.999995" stroke-opacity="1" stroke-miterlimit="4"/><g fill="#ffffff" fill-opacity="1"><g transform="translate(24.383555, 101.183706)"><g><path d="M 39.828125 -15.875 C 39.828125 -13.039062 39.113281 -10.351562 37.6875 -7.8125 C 36.257812 -5.269531 34.035156 -3.210938 31.015625 -1.640625 C 28.003906 -0.0664062 24.113281 0.71875 19.34375 0.71875 C 16.957031 0.71875 14.863281 0.609375 13.0625 0.390625 C 11.269531 0.179688 9.597656 -0.164062 8.046875 -0.65625 C 6.492188 -1.144531 4.882812 -1.785156 3.21875 -2.578125 L 3.21875 -15.15625 C 6.050781 -13.726562 8.910156 -12.640625 11.796875 -11.890625 C 14.679688 -11.140625 17.289062 -10.765625 19.625 -10.765625 C 21.03125 -10.765625 22.179688 -10.929688 23.078125 -11.265625 C 23.972656 -11.597656 24.632812 -12.054688 25.0625 -12.640625 C 25.488281 -13.222656 25.703125 -13.894531 25.703125 -14.65625 C 25.703125 -15.5625 25.382812 -16.332031 24.75 -16.96875 C 24.125 -17.601562 23.117188 -18.265625 21.734375 -18.953125 C 20.359375 -19.640625 18.535156 -20.5 16.265625 -21.53125 C 14.335938 -22.4375 12.59375 -23.363281 11.03125 -24.3125 C 9.46875 -25.269531 8.128906 -26.359375 7.015625 -27.578125 C 5.910156 -28.804688 5.0625 -30.242188 4.46875 -31.890625 C 3.875 -33.535156 3.578125 -35.476562 3.578125 -37.71875 C 3.578125 -41.082031 4.40625 -43.898438 6.0625 -46.171875 C 7.71875 -48.453125 10.03125 -50.164062 13 -51.3125 C 15.96875 -52.457031 19.394531 -53.03125 23.28125 -53.03125 C 26.6875 -53.03125 29.753906 -52.644531 32.484375 -51.875 C 35.210938 -51.113281 37.660156 -50.25 39.828125 -49.28125 L 35.515625 -38.375 C 33.265625 -39.394531 31.054688 -40.207031 28.890625 -40.8125 C 26.722656 -41.425781 24.707031 -41.734375 22.84375 -41.734375 C 21.632812 -41.734375 20.640625 -41.582031 19.859375 -41.28125 C 19.085938 -40.988281 18.515625 -40.585938 18.140625 -40.078125 C 17.773438 -39.578125 17.59375 -39.007812 17.59375 -38.375 C 17.59375 -37.5625 17.90625 -36.832031 18.53125 -36.1875 C 19.164062 -35.539062 20.226562 -34.84375 21.71875 -34.09375 C 23.207031 -33.34375 25.242188 -32.375 27.828125 -31.1875 C 30.367188 -30.039062 32.535156 -28.804688 34.328125 -27.484375 C 36.117188 -26.160156 37.484375 -24.570312 38.421875 -22.71875 C 39.359375 -20.875 39.828125 -18.59375 39.828125 -15.875 Z M 39.828125 -15.875 "/></g></g></g></svg>